#!OML:ASF H:\BabyWalks\Project 1\Capture day 1\Session 1\baby.ASF
:FULLY-SPECIFIED
:DEGREES
1675
root 23.1823 17.3277 -2.27028 -511.512 78.0473 -508.135
lowerback 16.6353 3.64034 6.69409
upperback 4.56825 6.10902 -1.91659
thorax -3.47086 3.16127 -6.96707
lowerneck 5.39672 19.5793 14.9165
upperneck -2.80418 27.0949 -17.5977
head 2.7288 13.7439 -6.23054
rclavicle 1.40143e-013 1.59028e-015
rhumerus -45.4862 0.195267 -79.9482
rradius 57.0517
rwrist 3.07316
rhand -10.6133 -10.6239
rfingers 7.12502
rthumb 15.393 -40.0308
lclavicle 1.40143e-013 1.59028e-015
lhumerus -27.1051 -21.049 81.1668
lradius 67.5824
lwrist 10.2226
lhand -7.07112 6.41788
lfingers 7.12502
lthumb 18.8024 35.5291
rfemur -1.45626 10.9926 28.2594
rtibia 41.6471
rfoot -15.2608 15.3001
rtoes 5.59025
lfemur -24.776 -11.0912 -8.95403
ltibia 36.6963
lfoot -12.5011 -14.5036
ltoes -3.91909
1676
root 23.1636 17.3076 -2.23211 -514.358 77.1678 -510.777
lowerback 16.6473 3.67239 6.78129
upperback 4.6133 6.17516 -1.87211
thorax -3.41409 3.20115 -6.97728
lowerneck 5.42618 19.5158 15.0605
upperneck -2.59979 27.0457 -17.5495
head 2.78892 13.7149 -6.23095
rclavicle 1.27222e-014 -3.57812e-014
rhumerus -45.1355 -0.230609 -79.4078
rradius 56.871
rwrist 3.01291
rhand -11.2003 -10.7796
rfingers 7.12502
rthumb 14.8275 -40.2291
lclavicle 1.27222e-014 -3.57812e-014
lhumerus -27.2863 -21.5972 81.4846
lradius 67.9529
lwrist 10.2339
lhand -6.70381 6.23682
lfingers 7.12502
lthumb 19.1557 35.3135
rfemur -1.21623 11.5057 28.3317
rtibia 41.2084
rfoot -15.7023 15.5985
rtoes 5.78335
lfemur -24.9873 -11.4396 -9.05017
ltibia 36.7789
lfoot -12.3465 -15.2645
ltoes -3.6323
1677
root 23.1423 17.2867 -2.19295 -516.918 76.2401 -513.137
lowerback 16.6576 3.69122 6.86598
upperback 4.66369 6.22395 -1.82037
thorax -3.35466 3.23291 -6.97497
lowerneck 5.4555 19.433 15.189
upperneck -2.43305 26.9667 -17.5286
head 2.83547 13.6728 -6.24345
rclavicle -3.77691e-015 7.95139e-015
rhumerus -44.7515 -0.633074 -78.8544
rradius 56.6524
rwrist 2.93316
rhand -11.6687 -10.9662
rfingers 7.12502
rthumb 14.3762 -40.4484
lclavicle -3.77691e-015 7.95139e-015
lhumerus -27.4973 -22.0842 81.7865
lradius 68.3102
lwrist 10.2715
lhand -6.30303 6.06363
lfingers 7.12502
lthumb 19.541 35.1016
rfemur -0.974542 11.986 28.3959
rtibia 40.7182
rfoot -16.136 15.948
rtoes 5.84566
lfemur -25.2148 -11.8264 -9.15062
ltibia 36.848
lfoot -12.1688 -16.0164
ltoes -3.31961
1678
root 23.1183 17.2649 -2.15296 -519.191 75.2667 -515.216
lowerback 16.6671 3.69834 6.96182
upperback 4.7191 6.25973 -1.7603
thorax -3.29128 3.25876 -6.96746
lowerneck 5.48377 19.3337 15.2982
upperneck -2.30268 26.8612 -17.5315
head 2.8683 13.6191 -6.26609
rclavicle 3.4191e-014 -4.77083e-015
rhumerus -44.3368 -1.01273 -78.2883
rradius 56.3983
rwrist 2.8371
rhand -12.0335 -11.1703
rfingers 7.12502
rthumb 14.0247 -40.6772
lclavicle 3.4191e-014 -4.77083e-015
lhumerus -27.7404 -22.51 82.0725
lradius 68.6551
lwrist 10.3326
lhand -5.87413 5.9122
lfingers 7.12502
lthumb 19.9534 34.9078
rfemur -0.731811 12.4263 28.4592
rtibia 40.1945
rfoot -16.5592 16.3495
rtoes 5.81314
lfemur -25.4595 -12.2481 -9.24777
ltibia 36.9045
lfoot -11.9697 -16.7558
ltoes -3.00354
1679
root 23.0915 17.2426 -2.11203 -521.184 74.2521 -517.018
lowerback 16.6823 3.69523 7.07715
upperback 4.77681 6.28633 -1.69013
thorax -3.229 3.28023 -6.95905
lowerneck 5.50618 19.2221 15.3713
upperneck -2.19953 26.733 -17.5353
head 2.88583 13.5551 -6.28983
rclavicle 9.93923e-016 1.19271e-014
rhumerus -43.8987 -1.36146 -77.7123
rradius 56.112
rwrist 2.72287
rhand -12.2979 -11.3943
rfingers 7.12502
rthumb 13.77 -40.9186
lclavicle 9.93923e-016 1.19271e-014
lhumerus -28.0073 -22.8741 82.3439
lradius 68.9741
lwrist 10.4104
lhand -5.41497 5.79221
lfingers 7.12502
lthumb 20.3947 34.7412
rfemur -0.486074 12.8237 28.5328
rtibia 39.6644
rfoot -16.9693 16.7834
rtoes 5.68641
lfemur -25.7192 -12.7036 -9.33277
ltibia 36.946
lfoot -11.7452 -17.4785
ltoes -2.6904
1680
root 23.0612 17.22 -2.06983 -522.943 73.191 -518.592
lowerback 16.7069 3.67898 7.21134
upperback 4.83482 6.30009 -1.61028
thorax -3.17249 3.2952 -6.94977
lowerneck 5.52159 19.1031 15.4068
upperneck -2.12153 26.5885 -17.5362
head 2.88905 13.4836 -6.31224
rclavicle -7.65321e-014 3.18055e-015
rhumerus -43.438 -1.67768 -77.1295
rradius 55.793
rwrist 2.60976
rhand -12.4813 -11.6244
rfingers 7.12502
rthumb 13.5932 -41.1607
lclavicle -7.65321e-014 3.18055e-015
lhumerus -28.2946 -23.1707 82.6007
lradius 69.2636
lwrist 10.4966
lhand -4.95144 5.73304
lfingers 7.12502
lthumb 20.8401 34.6338
rfemur -0.241842 13.1542 28.6169
rtibia 39.1589
rfoot -17.3603 17.2338
rtoes 5.51914
lfemur -26.0008 -13.1909 -9.40628
ltibia 36.967
lfoot -11.4863 -18.193
ltoes -2.38672
1681
root 23.0276 17.1974 -2.02638 -524.501 72.0907 -519.97
lowerback 16.7432 3.6531 7.36517
upperback 4.89255 6.30601 -1.52223
thorax -3.12255 3.30612 -6.94273
lowerneck 5.53326 18.9736 15.4264
upperneck -2.06365 26.4261 -17.5444
head 2.8831 13.4039 -6.33824
rclavicle -6.24184e-014 2.62396e-014
rhumerus -42.9618 -1.95836 -76.5413
rradius 55.4442
rwrist 2.50109
rhand -12.6054 -11.8513
rfingers 7.12502
rthumb 13.4736 -41.3955
lclavicle -6.24184e-014 2.62396e-014
lhumerus -28.5975 -23.4062 82.842
lradius 69.5176
lwrist 10.587
lhand -4.48785 5.72523
lfingers 7.12502
lthumb 21.2854 34.5764
rfemur 0.00308227 13.4089 28.7131
rtibia 38.7063
rfoot -17.7291 17.663
rtoes 5.39968
lfemur -26.2952 -13.7071 -9.47203
ltibia 36.9575
lfoot -11.191 -18.8957
ltoes -2.08209
1682
root 22.9906 17.1753 -1.98139 -525.877 70.9503 -521.171
lowerback 16.7895 3.61622 7.53601
upperback 4.95299 6.30204 -1.42304
thorax -3.07605 3.31234 -6.9326
lowerneck 5.53793 18.838 15.4331
upperneck -2.0243 26.2523 -17.5648
head 2.871 13.319 -6.3679
rclavicle -5.48646e-014 3.10104e-014
rhumerus -42.4659 -2.20274 -75.9469
rradius 55.0667
rwrist 2.4187
rhand -12.6793 -12.0727
rfingers 7.12502
rthumb 13.4023 -41.6216
lclavicle -5.48646e-014 3.10104e-014
lhumerus -28.9101 -23.5691 83.0665
lradius 69.7343
lwrist 10.6707
lhand -4.03487 5.76658
lfingers 7.12502
lthumb 21.7205 34.568
rfemur 0.247877 13.5652 28.8274
rtibia 38.3218
rfoot -18.0875 18.026
rtoes 5.31016
lfemur -26.5993 -14.2483 -9.52751
ltibia 36.9074
lfoot -10.8558 -19.5891
ltoes -1.81138
1683
root 22.95 17.1539 -1.93449 -527.118 69.7662 -522.249
lowerback 16.8457 3.56888 7.7129
upperback 5.01414 6.28712 -1.31402
thorax -3.03639 3.31303 -6.91459
lowerneck 5.53413 18.6981 15.4201
upperneck -2.00543 26.0685 -17.5942
head 2.85131 13.2296 -6.39943
rclavicle 8.28932e-014 -3.89618e-014
rhumerus -41.9534 -2.39849 -75.3484
rradius 54.6594
rwrist 2.36335
rhand -12.7164 -12.2761
rfingers 7.12502
rthumb 13.3665 -41.8273
lclavicle 8.28932e-014 -3.89618e-014
lhumerus -29.2261 -23.6601 83.2748
lradius 69.9109
lwrist 10.7414
lhand -3.60003 5.8412
lfingers 7.12502
lthumb 22.138 34.5937
rfemur 0.483426 13.5932 28.9507
rtibia 38.0053
rfoot -18.4511 18.2873
rtoes 5.22207
lfemur -26.9156 -14.8129 -9.58181
ltibia 36.8063
lfoot -10.4731 -20.2786
ltoes -1.5837
